inDegrees=no
num_controls=7
num_derivatives=13
num_iterations=155
num_multipliers=7
num_parameters=0
num_slacks=7
num_states=26
objective=5.626893
objective_accelerations=0.602833
objective_balance=0.014480
objective_effort=0.455490
objective_height=4.483923
objective_ligament=0.070167
solver_duration=1395.322195
status=Solve_Succeeded
success=true
DataType=double
version=3
OpenSimVersion=4.4-2022-07-23-0e9fedc
endheader
time	/jointset/ground_pelvis/pelvis_tilt/value	/jointset/ground_pelvis/pelvis_tx/value	/jointset/ground_pelvis/pelvis_ty/value	/jointset/hip_r/hip_flexion_r/value	/jointset/hip_r/hip_adduction_r/value	/jointset/hip_r/hip_rotation_r/value	/jointset/back/lumbar_extension/value	/jointset/patellofemoral_r/patellar_flexion_r/value	/jointset/knee_r/knee_flexion_r/value	/jointset/knee_r/knee_adduction_r/value	/jointset/knee_r/knee_rotation_r/value	/jointset/ankle_r/ankle_angle_r/value	/jointset/subtalar_r/subtalar_angle_r/value	/jointset/ground_pelvis/pelvis_tilt/speed	/jointset/ground_pelvis/pelvis_tx/speed	/jointset/ground_pelvis/pelvis_ty/speed	/jointset/hip_r/hip_flexion_r/speed	/jointset/hip_r/hip_adduction_r/speed	/jointset/hip_r/hip_rotation_r/speed	/jointset/back/lumbar_extension/speed	/jointset/patellofemoral_r/patellar_flexion_r/speed	/jointset/knee_r/knee_flexion_r/speed	/jointset/knee_r/knee_adduction_r/speed	/jointset/knee_r/knee_rotation_r/speed	/jointset/ankle_r/ankle_angle_r/speed	/jointset/subtalar_r/subtalar_angle_r/speed	/forceset/tau_hip_flexion_r	/forceset/tau_hip_adduction_r	/forceset/tau_hip_rotation_r	/forceset/tau_knee_flexion_r	/forceset/tau_ankle_angle_r	/forceset/tau_subtalar_angle_r	/forceset/tau_lumbar_extension	lambda_cid13_p0	lambda_cid14_p0	lambda_cid14_p1	lambda_cid14_p2	lambda_cid14_p3	lambda_cid14_p4	lambda_cid14_p5	/jointset/ground_pelvis/pelvis_tilt/accel	/jointset/ground_pelvis/pelvis_tx/accel	/jointset/ground_pelvis/pelvis_ty/accel	/jointset/hip_r/hip_flexion_r/accel	/jointset/hip_r/hip_adduction_r/accel	/jointset/hip_r/hip_rotation_r/accel	/jointset/back/lumbar_extension/accel	/jointset/patellofemoral_r/patellar_flexion_r/accel	/jointset/knee_r/knee_flexion_r/accel	/jointset/knee_r/knee_adduction_r/accel	/jointset/knee_r/knee_rotation_r/accel	/jointset/ankle_r/ankle_angle_r/accel	/jointset/subtalar_r/subtalar_angle_r/accel	gamma_cid13_p0	gamma_cid14_p0	gamma_cid14_p1	gamma_cid14_p2	gamma_cid14_p3	gamma_cid14_p4	gamma_cid14_p5
0	-0.0002751083938517781	0.1280762225838955	0.9342978632168516	0.1934208783645156	-0.2169443799782246	-0.2381733098336503	-0.2903791543005566	0.231179331402162	0.2311793314021609	0.108458695155512	0.1631473060196269	0.08934340440958972	0.07775818213979052	0	0	0	0	0	0	0	0	0	0	0	0	0	0.1114001134649773	-0.06532169081867113	0.00124997766195349	-0.2472742259817845	0.1256837570921257	-0.06109545552340608	-0.03024096075633211	-29.55511623975063	-4.635854756595132	-23.17980688807996	-0.640750096095523	0.133459810972149	-609.8851357168318	59.4292639076703	-1.879901030709702	-1.809527709007242	-0.8584538041981754	9.89242891907816	0.07984407756657722	1.859815818051123	-6.254585647583221	10.12743668740725	10.12743668740697	-2.833876419406107	0.5532925277385293	2.808050338307229	0.9232614562042825	3.454656254360419e-08	2.033031621888828e-08	-2.574975537522197e-07	2.174886165515974e-07	9.396944452737332e-09	1.394077215094821e-07	-2.493870077924007e-07
0.01	-0.0003630672487514363	0.1279871135913898	0.934256140354216	0.1939023600178716	-0.2169387351181805	-0.2380804881726346	-0.2906935480982463	0.2316761324671546	0.2316761324671275	0.1083160959186643	0.1631718058221016	0.08948173952677994	0.07780577287787269	-0.01752544882225209	-0.01770862387502626	-0.008321939050609819	0.09583926604663007	0.001106663941502417	0.01849381309422074	-0.06247969730948057	0.09892176803473307	0.09892176803473136	-0.02835067025501093	0.004860491195172848	0.02758080884698152	0.009466933730926969	0.1080878057850017	-0.07033812921259951	0.001454152197912231	-0.2451582838502469	0.1224506350240241	-0.05560927836214986	-0.02703936470595172	-29.5610522719601	-5.411357808795793	-20.81444431456243	-1.153210271314029	-0.3706393237793758	-611.3914725726489	64.16089678623199	-1.67892053014069	-1.734551653764384	-0.8156410524583425	9.361115732321839	0.122730291178849	1.833630020526773	-6.184802438408007	9.708773208145844	9.708773208145622	-2.810306414415395	0.446549616236199	2.720168894086236	0.9507125225677648	4.502893961445131e-08	8.50393673225216e-09	-3.178138391244634e-07	2.576573067212793e-07	2.710969343681252e-08	2.802776595166281e-08	-3.035828681244539e-07
0.02	-0.0006242913362995258	0.1277243139747301	0.9341318826816815	0.1953285223886627	-0.2169226930709717	-0.237804835187592	-0.2916207670021848	0.2331489964817859	0.2331489964817806	0.1078950611620483	0.1632437349767665	0.08989329727967857	0.07794649359147036	-0.03465304653081822	-0.03473812483077519	-0.01650696197980225	0.1889361434878949	0.002079437432473347	0.03656626480520893	-0.1225650212500484	0.1952125899350448	0.1952125899350423	-0.05568710394469959	0.009485870423519829	0.05464452714166772	0.01862599510308754	0.1047754981049729	-0.07535456760652597	0.001658326734173665	-0.243042341718739	0.1192175129559225	-0.05012310120089637	-0.02383776865560933	-29.57837257238373	-6.108083668280846	-18.45108021689589	-1.647313272363015	-0.8454190553170696	-611.6374779502864	68.62109329098466	-1.800330807972425	-1.673703125151891	-0.8310705799146918	9.343951198005163	0.05306598746028554	1.775543541404601	-5.775710973800678	9.601247460522977	9.601247460522867	-2.631029106341679	0.5062701343733654	2.704632227848022	0.8616869844509668	5.551131668529845e-08	-3.322442754383961e-09	-3.781301244967071e-07	2.978259968909611e-07	4.482244242088771e-08	-8.335218960615649e-08	-3.577787284565069e-07
0.03	-0.00105512049594281	0.1272943968001088	0.9339261834082381	0.1976725309806621	-0.2168976895066954	-0.2373513516642012	-0.2931363457001628	0.2355715720898486	0.2355715720898596	0.1072059758419007	0.1633613085218051	0.09057247839976339	0.07817705723619237	-0.05143850437969772	-0.05115307353084437	-0.02463056252989096	0.2794186953510253	0.002907074321925929	0.05403831413969123	-0.1801426812673048	0.2888422666309565	0.2888422666309546	-0.08196502762112538	0.01397775005820156	0.08106584372331958	0.02743655295054616	0.09978548936180247	-0.07112290691608801	0.001892675372618247	-0.2386701511720856	0.1142707550090551	-0.050375696426034	-0.0195845891470523	-29.60632996723272	-7.712873551546322	-18.79442357257025	-1.646655329936292	-0.3918350407104633	-612.0464859814623	66.97887206972169	-1.6065075426332	-1.611546222366491	-0.8026723861497043	8.83337675024829	0.09548512658931102	1.719276673148745	-5.68758795395611	9.174776872057041	9.174776872057038	-2.601463698566131	0.4130417986395529	2.592008401882038	0.8831895342276556	5.628845863303098e-08	-1.365452285070854e-08	-3.629244872579224e-07	2.962789401774095e-07	5.311671035401725e-08	-1.795195538946459e-07	-3.503212649277568e-07
0.04	-0.001651575087924125	0.1267030990424995	0.9336393146105756	0.2009079590052466	-0.2168648350561435	-0.2367258994387322	-0.2952154598859661	0.2389166342844873	0.2389166342844828	0.1062590533450207	0.1635222798472318	0.09151209809137463	0.07849421632925592	-0.06777813300009836	-0.06701424142836891	-0.03274086682363899	0.3672200300053745	0.003649614687428769	0.07096000522133208	-0.2352721188152663	0.3797099072441395	0.3797099072441382	-0.1072545393084873	0.01816542651784522	0.1067322414473025	0.03594508477137998	0.09479548061858982	-0.06689124622562205	0.002127024010696894	-0.2342979606254122	0.1093239970622073	-0.05062829165112431	-0.01533140963854381	-29.6436957964371	-9.245699053395677	-19.14073697353971	-1.627738533740137	0.08086557175393777	-611.3059734925066	65.08771051887108	-1.711164962276565	-1.562946964643104	-0.8284113286465481	8.807707756248988	0.03604668267034407	1.665471890836292	-5.286066479941679	9.048840243977239	9.048840243977113	-2.433346708528937	0.4454294993657669	2.553648456314079	0.8012817791259728	5.686549264008075e-08	-2.395579265032566e-08	-3.461616969756113e-07	2.938717649714201e-07	6.121678280156029e-08	-2.753732565074791e-07	-3.415925988451756e-07
0.05	-0.002409663216828995	0.1259559773751616	0.933271141029782	0.2050086687979382	-0.2168252369586278	-0.2359344683018864	-0.2978334001702691	0.2431569813303444	0.2431569813303397	0.1050646413223312	0.1637241244216034	0.09270467008828293	0.07889468338366726	-0.08376526216244802	-0.08231447926534226	-0.04090972951088272	0.4524811756185767	0.004260124360027304	0.0872223345202446	-0.2879348911201647	0.4679104566803293	0.4679104566803328	-0.1314700393397686	0.02214518296652004	0.1316637493000451	0.04410804325019084	0.08972545298464098	-0.06511447401906204	0.002369327460954473	-0.2308059132818532	0.1047328409667188	-0.04871733548527864	-0.01109082903103724	-29.68911775151289	-10.54583226227951	-18.48993944709877	-1.786907104727761	0.2867297144916015	-610.740557607377	65.30299399076068	-1.531344379972439	-1.499207968764505	-0.8135616143395682	8.319207574768615	0.07208185590841505	1.591087711027177	-5.199225566964333	8.638294128614088	8.638294128614746	-2.392001008467906	0.3655591775217402	2.445143218877369	0.8177421827803986	5.115992156007548e-08	-3.324239421635616e-08	-2.910772011185143e-07	2.422052165809297e-07	6.399440063381684e-08	-3.568493954054124e-07	-2.805794651361184e-07
0.06	-0.003325394134702453	0.1250587241743452	0.9328207912470009	0.2099487679689414	-0.2167798280151137	-0.2349835190197313	-0.3009665367698607	0.2482658602375989	0.2482658602375951	0.1036328044277569	0.1639640286524262	0.09414300541754202	0.07937556788297115	-0.09930669079513837	-0.09704054812407467	-0.04917610722112976	0.5350979056682635	0.004811783886767436	0.1028636342835002	-0.338311381873065	0.5534162795234874	0.5534162795234961	-0.1547395136926672	0.02577735781132876	0.1558849079177078	0.05202857374987284	0.08465542535064341	-0.06333770181247779	0.002611630911140252	-0.2273138659383029	0.100141684871239	-0.04680637931940092	-0.006850248423575828	-29.74086762965529	-11.7808465504197	-17.84025028675282	-1.931609419090023	0.4997285531149251	-609.1485447144319	65.30535498412644	-1.622024856344594	-1.448113168995071	-0.8479143332472043	8.278824643545928	0.02427665349867971	1.541265983704892	-4.82881016954205	8.509894925370892	8.509894925370894	-2.244141572852447	0.3759131785925668	2.411578609297913	0.7527961833001657	4.518981973956265e-08	-4.248627290939352e-08	-2.343791597635315e-07	1.884645893195129e-07	6.65479151138508e-08	-4.377201631995603e-07	-2.173648801585781e-07
0.07000000000000001	-0.00439483989406966	0.1240171235383896	0.9322870675879108	0.2157024800799667	-0.2167295083106172	-0.23387954764139	-0.3045915374292456	0.2542166750264988	0.2542166750264925	0.1019736038374409	0.1642389172342931	0.09582004074917568	0.07993409450706133	-0.1145132423660323	-0.111178098606976	-0.05759783999021079	0.6152071065920337	0.005249784176516351	0.1178070479121034	-0.3863116704737706	0.6362983684518748	0.6362983684518811	-0.1769571670353907	0.02914355400390361	0.17940940454894	0.05964952096626955	0.07941711514907028	-0.06093595559333864	0.00281922652964198	-0.224575326383174	0.09646795314506047	-0.04521841648420276	-0.002503792868263259	-29.79714272685859	-12.76015529690265	-17.31007082617878	-2.029837954855989	0.4846523992424983	-607.8966001612312	65.0527625308894	-1.459576512222864	-1.381340578864788	-0.8437735820003941	7.811359287508684	0.05321610022251864	1.452376026497588	-4.729076275778868	8.110110440299062	8.110110440298524	-2.18907665010674	0.3084874306257707	2.305972205935767	0.7626465587276006	3.16262919058478e-08	-5.545743102127534e-08	-1.545069827593342e-07	-4.726410957022284e-09	6.796225948221203e-08	-5.407009175003922e-07	-3.980710296358567e-08
